<svg width="280" height="280" viewBox="0 0 280 280" fill="none" xmlns="http://www.w3.org/2000/svg">
<g clip-path="url(#clip0_1946_460)">
<path fill-rule="evenodd" clip-rule="evenodd" d="M-0.5 -0.5C92.8333 -0.5 186.167 -0.5 279.5 -0.5C279.5 92.8333 279.5 186.167 279.5 279.5C186.167 279.5 92.8333 279.5 -0.5 279.5C-0.5 186.167 -0.5 92.8333 -0.5 -0.5Z" fill="#FEFEFE"/>
<path fill-rule="evenodd" clip-rule="evenodd" d="M187.5 93.5C189.764 94.2186 192.097 94.552 194.5 94.5C194.5 100.5 194.5 106.5 194.5 112.5C196.167 112.5 197.833 112.5 199.5 112.5C199.5 115.833 199.5 119.167 199.5 122.5C197.833 122.5 196.167 122.5 194.5 122.5C194.333 133.505 194.5 144.505 195 155.5C196.011 156.337 197.178 156.67 198.5 156.5C199.482 159.962 199.815 163.629 199.5 167.5C192.939 171.474 188.939 169.808 187.5 162.5C187.5 148.833 187.5 135.167 187.5 121.5C185.833 121.5 184.167 121.5 182.5 121.5C182.167 121.5 181.833 121.5 181.5 121.5C181.5 117.833 181.5 114.167 181.5 110.5C182.5 110.5 183.5 110.5 184.5 110.5C185.209 111.404 186.209 111.737 187.5 111.5C187.5 105.5 187.5 99.5 187.5 93.5Z" fill="#0F0F0F"/>
<path fill-rule="evenodd" clip-rule="evenodd" d="M94.5001 127.5C90.3657 126.515 86.0324 126.182 81.5001 126.5C81.5001 124.833 81.5001 123.167 81.5001 121.5C84.212 106.456 93.212 98.456 108.5 97.5C119.416 97.7411 128.583 101.741 136 109.5C137.562 111.957 138.562 114.624 139 117.5C139.26 139.179 139.76 160.846 140.5 182.5C135.761 183.185 131.094 184.185 126.5 185.5C126.313 183.436 125.813 181.436 125 179.5C115.716 191.927 103.549 196.427 88.5001 193C82.9368 189.386 79.7701 184.219 79.0001 177.5C75.4506 162.468 79.9506 150.634 92.5001 142C100.234 138.986 108.234 136.986 116.5 136C124.198 133.621 126.698 128.454 124 120.5C122.62 117.117 120.12 115.284 116.5 115C106.648 113.351 101.982 117.518 102.5 127.5C99.8334 127.5 97.1668 127.5 94.5001 127.5Z" fill="#0F0F0F"/>
<path fill-rule="evenodd" clip-rule="evenodd" d="M181.5 121.502C181.5 122.835 181.5 124.169 181.5 125.502C181.5 127.502 181.5 129.502 181.5 131.502C178.833 131.502 176.167 131.502 173.5 131.502C174.046 123.144 170.379 119.811 162.5 121.502C158.082 127.197 156.415 133.697 157.5 141.002C157.48 146.557 157.98 152.057 159 157.502C161.633 164.161 165.633 165.161 171 160.502C172.43 157.649 173.263 154.649 173.5 151.502C175.8 149.8 178.467 149.134 181.5 149.502C181.5 151.169 181.5 152.835 181.5 154.502C180.738 164.544 176.071 172.044 167.5 177.002C161.924 178.474 157.091 177.307 153 173.502C143.246 155.867 141.912 137.534 149 118.502C155.221 105.368 164.221 103.035 176 111.502C178.13 114.769 179.963 118.102 181.5 121.502Z" fill="#121212"/>
<path fill-rule="evenodd" clip-rule="evenodd" d="M81.5002 121.5C81.5002 123.167 81.5002 124.833 81.5002 126.5C86.0325 126.182 90.3658 126.515 94.5002 127.5C89.8335 127.5 85.1669 127.5 80.5002 127.5C80.2055 125.265 80.5388 123.265 81.5002 121.5Z" fill="#505050"/>
<path fill-rule="evenodd" clip-rule="evenodd" d="M123.5 146.5C123.56 145.957 123.893 145.624 124.5 145.5C125.809 149.649 125.809 153.649 124.5 157.5C124.815 153.629 124.482 149.962 123.5 146.5Z" fill="#686868"/>
<path fill-rule="evenodd" clip-rule="evenodd" d="M123.499 146.5C124.481 149.962 124.814 153.629 124.499 157.5C123.684 170.819 116.684 176.652 103.499 175C97.9305 167.765 98.2639 160.765 104.499 154C110.688 151.041 117.022 148.541 123.499 146.5Z" fill="#F8F8F8"/>
<path fill-rule="evenodd" clip-rule="evenodd" d="M201.499 150.5C203.499 150.5 205.499 150.5 207.499 150.5C207.499 155.5 207.499 160.5 207.499 165.5C206.04 165.433 204.707 165.766 203.499 166.5C201.553 161.604 200.886 156.271 201.499 150.5Z" fill="#0D0D0D"/>
</g>
<defs>
<clipPath id="clip0_1946_460">
<rect width="280" height="280" fill="white"/>
</clipPath>
</defs>
</svg>
